# xmcd
#
# Track frame offsets: 
#        150
#        20362
#        39797
#        61382
#        78712
#        97930
#        117365
#        134487
#        152427
#        173787
#
# Disc length: 2590 seconds
#
# Revision: 5
# Processed by: cddbd v1.5.2PL0 Copyright (c) Steve Scherf et al.
# Submitted via: ExactAudioCopy v1.3
#
DISCID=740a1c0a
DTITLE=黃乙玲 - 跨世紀精選 [CD 02)
DYEAR=2000
DGENRE=Pop
TTITLE0=愛情的酒攏袂退
TTITLE1=感謝無情人
TTITLE2=甘有速配 (feat. 迪克牛仔)
TTITLE3=可恨的愛人
TTITLE4=我想你不是真心愛我
TTITLE5=傷心第四台
TTITLE6=愛你到350歲
TTITLE7=Radio 的點歌心情
TTITLE8=花言巧語
TTITLE9=看著你 (feat. 謝宇威)
EXTD=
EXTT0=
EXTT1=
EXTT2=
EXTT3=
EXTT4=
EXTT5=
EXTT6=
EXTT7=
EXTT8=
EXTT9=
PLAYORDER=
